<svg width="128" height="128" viewBox="0 0 128 128" fill="none" xmlns="http://www.w3.org/2000/svg">
<rect width="128" height="128" rx="64" fill="white"/>
<rect x="1" y="1" width="126" height="126" rx="63" stroke="black" stroke-opacity="0.1" stroke-width="2"/>
<path fill-rule="evenodd" clip-rule="evenodd" d="M105.787 38.8484C105.6 38.36 105.275 37.7658 104.851 37.1228C104.005 35.8286 102.727 34.2414 101.311 32.7438V32.7357C99.7969 31.2136 98.2504 29.895 96.9969 29.0241C96.3702 28.5927 95.8004 28.2508 95.3283 28.0636C95.0923 27.966 94.8563 27.9008 94.6284 27.8846C94.4086 27.8683 94.1319 27.909 93.9202 28.1206L64.5698 56.7063C64.2442 57.0237 63.7151 57.0237 63.3895 56.7063L34.0391 28.1206C33.8274 27.9171 33.5507 27.8764 33.3309 27.8846C33.1112 27.9008 32.867 27.966 32.6309 28.0636C32.1589 28.2508 31.581 28.5927 30.9624 29.0241C29.7089 29.895 28.1624 31.2217 26.6485 32.7357V32.7438C25.2323 34.2414 23.9544 35.8286 23.1079 37.1228C22.6847 37.7658 22.3509 38.36 22.1719 38.8484C22.0823 39.0925 22.0172 39.3367 22.001 39.5565C21.9928 39.7763 22.0335 40.0611 22.2533 40.2728L55.0467 72.1874C55.3397 72.4723 55.5025 72.863 55.5025 73.27L55.47 112.307C55.47 112.6 55.6409 112.819 55.7874 112.958C55.942 113.104 56.1455 113.226 56.3734 113.332C56.8292 113.552 57.456 113.755 58.1966 113.926C59.6943 114.268 61.7373 114.512 64 114.512C66.2627 114.512 68.3057 114.268 69.8034 113.926C70.544 113.755 71.1708 113.552 71.6266 113.332C71.8545 113.226 72.058 113.096 72.2126 112.958C72.3591 112.819 72.53 112.6 72.53 112.307L72.4975 73.27C72.4975 72.863 72.6603 72.4723 72.9533 72.1874L105.747 40.2728C105.966 40.0611 106.007 39.7763 105.999 39.5565C105.991 39.3286 105.918 39.0844 105.828 38.8484H105.787Z" fill="url(#paint0_linear_14620_7509)"/>
<defs>
<linearGradient id="paint0_linear_14620_7509" x1="22" y1="72.834" x2="105.21" y2="65.6414" gradientUnits="userSpaceOnUse">
<stop offset="0.3" stop-color="#FF6A16"/>
<stop offset="0.542948" stop-color="#FF3227"/>
<stop offset="0.89" stop-color="#FF66DD"/>
</linearGradient>
</defs>
</svg>
